<svg id="Laag_1" data-name="Laag 1" xmlns="http://www.w3.org/2000/svg" viewBox="0 0 1393.68 695.31"><defs><style>.cls-1,.cls-2,.cls-4{fill:none;}.cls-1,.cls-2,.cls-3,.cls-4{stroke:#fff;stroke-miterlimit:10;}.cls-1{stroke-width:13px;}.cls-2,.cls-3{stroke-width:7px;}.cls-3{fill:#fff;}.cls-4{stroke-width:3px;}</style></defs><path class="cls-1" d="M307,244.51a147.55,147.55,0,0,0-90.66,99.77L402.6,379.63a304.6,304.6,0,0,0-27.78-58A307.86,307.86,0,0,0,307,244.51Z" transform="translate(-177.76 -212.92)"/><path class="cls-1" d="M303.32,241.11l-13.94-20.85A135.39,135.39,0,0,0,184.84,338.8l31.48,5.48" transform="translate(-177.76 -212.92)"/><circle class="cls-2" cx="126.78" cy="68.62" r="14"/><circle class="cls-2" cx="108.14" cy="133.99" r="14"/><circle class="cls-2" cx="82.13" cy="97.03" r="12"/><circle class="cls-2" cx="170.14" cy="111.57" r="11"/><path class="cls-1" d="M1490.93,607.05c22-11.81,46.91-12.32,61.43,0,21.78,18.48,12.34,59.13-5.95,81.23-23.53,28.44-61.64,26.1-66,25.76-31.36-3.16-56.12-24-61.43-50.19-3.61-17.86.29-45.72,22.46-58.12C1464.09,593,1489,606,1490.93,607.05Z" transform="translate(-177.76 -212.92)"/><path class="cls-3" d="M1460.88,576.07a40.4,40.4,0,0,0,6.43,9.3c8.67,9.35,19.53,12,24.3,12.86A19,19,0,0,1,1488,586.8c.21-8.43,6.2-13.52,7.15-14.3l6.43,5a13.24,13.24,0,0,0,0,20.73l24.3,1.43a20.73,20.73,0,0,1-8.57,6.43c-8.19,3.14-17.1-.28-17.16,0s10.66.65,16.44,7.15c3.91,4.4,4.4,10.32,4.29,14.3a30.77,30.77,0,0,0-29.31-17.16c-.83-.46-9.46-5.07-18.58-.71a20.41,20.41,0,0,0-11.44,17.87,16.14,16.14,0,0,1,17.16-26.45,25.16,25.16,0,0,1-17.87-25Z" transform="translate(-177.76 -212.92)"/><path class="cls-2" d="M514.75,769.33l5.51-7.57a77,77,0,0,0,17.56,27.89c16.85,16.85,30.81,13.77,44.78,28.94,9.21,10,19.43,29,13.77,46.84-6,18.74-28.25,32-54.76,31.34-25.27,11.64-50.61,10.43-64.41-3.1-12-11.81-11.79-29.56-11.71-32.38,1-34.28,38.47-46.38,40-83.35A58.61,58.61,0,0,0,503,759Z" transform="translate(-177.76 -212.92)"/><path class="cls-2" d="M529.56,800c1.77,1.49,34.82,30.14,27.55,67.5A62.47,62.47,0,0,1,542,897.12c-4.93-.58-18.84-2.89-29.63-14.47-16.08-17.26-11.73-40.61-11-44.09,2.12-10.42,6-12,10.34-23.42,3.76-9.88,7-24.87,3.44-46.15" transform="translate(-177.76 -212.92)"/><path class="cls-2" d="M909.5,386.5c-13.4,17.36-15,42.69-3,61,16.73,25.5,56.73,32.6,81,11s22.78-63.47-3-83C961.51,358.08,926.85,364,909.5,386.5Z" transform="translate(-177.76 -212.92)"/><path class="cls-2" d="M1085.5,261.5c7.67.56,15.74,6.68,17,14,1.16,6.76-3.78,12.74-12,21a311.46,311.46,0,0,1-43,36c-25.8,17.76-40.91,26.92-39,33,.94,3,5.09,2.26,11,8s10.14,14.8,8,17-12.68-1.65-19-9c-4.82-5.61-5.28-10.88-8-11-1.88-.08-4.53,2.32-8,12.74A46.48,46.48,0,0,0,974,369.51c13.42-9.23,15.3-13.67,14.5-16-1.09-3.19-7.06-2.25-14-8-4-3.31-8.33-8.85-7-11,1.45-2.35,9.79-.83,16,3,6,3.71,5.83,7,9,8,7.31,2.33,16.85-12.39,34-33,7.22-8.67,16.48-17.78,35-36C1072,266.15,1077.77,260.94,1085.5,261.5Z" transform="translate(-177.76 -212.92)"/><circle class="cls-4" cx="774.24" cy="205.08" r="6.5"/></svg>